# xmcd
#
# Track frame offsets:
#	150
#	11341
#	23528
#	34073
#	43959
#	56416
#	69481
#	85843
#	96151
#	108537
#
# Disc length: 1599 seconds
#
# Revision: 1
# Processed by: cddbd v1.5.2PL0 Copyright (c) Steve Scherf et al.
# Submitted via: audiograbber 1.83.01
#
DISCID=76063d0a
DTITLE=Various Artist - classic country songs
DYEAR=2008
DGENRE=Country
TTITLE0=conway twitty - It's Only Make Believe
TTITLE1=george jones and tammy wynette - Two Story House
TTITLE2=patsy cline - Lovesick Blues
TTITLE3=marty robbins - Knee Deep In The Blues
TTITLE4=glen campbell - By The Time I Get To Phoenix
TTITLE5=lynn anderson - Rose Garden
TTITLE6=merle haggard - Hungry Eyes
TTITLE7=faron young - Hello Walls
TTITLE8=hank williams - Move It On Over
TTITLE9=carl smith - Loose Talk
EXTD=CD 2 - Classic Country ID3G:   2 YEAR: 2008
EXTT0=Conway Twitty
EXTT1=George Jones and Tammy Wynette
EXTT2=Patsy Cline
EXTT3=Marty Robbins
EXTT4=Glen Campbell
EXTT5=Lynn Anderson
EXTT6=Merle Haggard
EXTT7=Faron Young
EXTT8=Hank Williams
EXTT9=Carl Smith
PLAYORDER=
